<?xml version="1.0" encoding="UTF-8"?>
<svg id="Layer_1" xmlns="http://www.w3.org/2000/svg" version="1.1" viewBox="0 0 1920 383.22">
  <!-- Generator: Adobe Illustrator 30.0.0, SVG Export Plug-In . SVG Version: 2.1.1 Build 123)  -->
  <defs>
    <style>
      .st0 {
        fill: #fff;
      }
    </style>
  </defs>
  <g>
    <path class="st0" d="M392.8,263.48l53.65-145.76h22.67l-50.41,145.76h-25.91ZM420.54,206.19h79.76v21.05h-79.76v-21.05ZM502.73,263.48l-50.21-145.76h23.89l53.45,145.76h-27.13Z"/>
    <path class="st0" d="M549.09,263.48V117.72h25.51v145.76h-25.51Z"/>
    <path class="st0" d="M601.72,263.48v-103.25h24.9v24.29h.61v78.95h-25.51ZM671.16,263.48v-66.6c0-6.07-1.52-10.56-4.55-13.46-3.04-2.9-7.32-4.35-12.86-4.35-4.86,0-9.31,1.15-13.36,3.44-4.05,2.3-7.26,5.54-9.62,9.72-2.36,4.19-3.54,9.04-3.54,14.58l-2.63-23.69c3.51-7.56,8.57-13.6,15.18-18.12,6.61-4.52,14.3-6.78,23.08-6.78,10.53,0,18.83,3,24.9,9.01,6.07,6.01,9.11,13.73,9.11,23.18v73.08h-25.71ZM740.6,263.48v-66.6c0-6.07-1.49-10.56-4.45-13.46-2.97-2.9-7.22-4.35-12.75-4.35-4.99,0-9.52,1.15-13.56,3.44-4.05,2.3-7.22,5.54-9.52,9.72-2.3,4.19-3.44,9.04-3.44,14.58l-4.45-23.69c3.37-7.56,8.5-13.6,15.39-18.12,6.88-4.52,14.84-6.78,23.89-6.78,10.8,0,19.26,3.07,25.41,9.21,6.14,6.14,9.21,14.27,9.21,24.4v71.67h-25.71Z"/>
    <path class="st0" d="M839.19,265.5c-10.93,0-20.55-2.29-28.85-6.88-8.3-4.59-14.75-10.96-19.33-19.13-4.59-8.16-6.88-17.51-6.88-28.04s2.29-19.77,6.88-27.74c4.59-7.96,11.03-14.2,19.33-18.73,8.3-4.52,17.92-6.78,28.85-6.78s20.72,2.26,28.95,6.78c8.23,4.52,14.64,10.76,19.23,18.73,4.59,7.96,6.88,17.21,6.88,27.74s-2.33,19.87-6.98,28.04c-4.66,8.17-11.1,14.54-19.33,19.13-8.23,4.59-17.82,6.88-28.75,6.88ZM839.19,245.06c5.4,0,10.25-1.38,14.58-4.15,4.32-2.76,7.69-6.68,10.12-11.74,2.43-5.06,3.64-11.03,3.64-17.92,0-10.12-2.67-18.08-8-23.89-5.33-5.8-12.12-8.71-20.35-8.71s-15.05,2.9-20.45,8.71c-5.4,5.8-8.1,13.77-8.1,23.89,0,6.88,1.25,12.86,3.75,17.92,2.5,5.06,5.87,8.98,10.12,11.74,4.25,2.77,9.14,4.15,14.68,4.15Z"/>
    <path class="st0" d="M952.96,265.5c-14.31,0-25.71-3-34.21-9.01-8.5-6-13.16-14.34-13.97-25h23.28c.67,5.26,3.17,9.25,7.49,11.94,4.32,2.7,10.12,4.05,17.41,4.05,6.61,0,11.57-1.04,14.88-3.14,3.31-2.09,4.96-5.09,4.96-9.01,0-2.83-.95-5.16-2.83-6.98-1.89-1.82-5.47-3.34-10.73-4.56l-16.6-3.85c-11.34-2.43-19.74-6.24-25.2-11.44-5.47-5.19-8.2-11.71-8.2-19.54,0-9.58,3.68-17.11,11.03-22.57,7.35-5.47,17.51-8.2,30.47-8.2s23.11,2.73,30.87,8.2c7.76,5.47,12.05,12.99,12.86,22.57h-23.28c-.68-4.18-2.8-7.35-6.38-9.51-3.58-2.16-8.47-3.24-14.68-3.24-5.8,0-10.19.91-13.16,2.73-2.97,1.82-4.45,4.49-4.45,8,0,2.7,1.15,4.96,3.44,6.78,2.29,1.82,6.14,3.41,11.54,4.76l17.82,4.05c10.12,2.3,17.78,6.28,22.98,11.94,5.19,5.67,7.79,12.35,7.79,20.04,0,9.85-3.78,17.48-11.34,22.88-7.56,5.4-18.15,8.1-31.78,8.1Z"/>
    <path class="st0" d="M1002.76,180.27v-20.04h73.69v20.04h-73.69ZM1059.65,265.5c-12.69,0-22.04-3-28.04-9.01-6.01-6-9.01-15.01-9.01-27.03v-92.72l25.71-9.52v102.84c0,4.99,1.35,8.71,4.05,11.13,2.7,2.43,6.95,3.64,12.75,3.64,2.29,0,4.35-.17,6.17-.51,1.82-.34,3.54-.78,5.16-1.32v19.84c-1.62.81-3.92,1.45-6.88,1.92-2.97.47-6.28.71-9.92.71Z"/>
    <path class="st0" d="M1133.54,263.48V117.72h26.32v145.76h-26.32ZM1146.09,177.24h94.75v20.65h-94.75v-20.65ZM1228.89,263.48V117.72h26.32v145.76h-26.32Z"/>
    <path class="st0" d="M1314.73,265.5c-7.16,0-13.33-1.52-18.52-4.55-5.2-3.04-9.18-7.19-11.94-12.45-2.77-5.26-4.15-11.2-4.15-17.81v-70.45h25.51v65.19c0,6.34,1.58,11.13,4.76,14.37,3.17,3.24,7.66,4.86,13.46,4.86,5.26,0,9.88-1.21,13.87-3.64,3.98-2.43,7.15-5.84,9.51-10.22,2.36-4.38,3.54-9.34,3.54-14.88l2.63,24.7c-3.38,7.56-8.4,13.6-15.08,18.12-6.68,4.52-14.54,6.78-23.58,6.78ZM1351.57,263.48v-24.29h-.81v-78.95h25.71v103.25h-24.9Z"/>
    <path class="st0" d="M1403.6,263.48v-103.25h24.9v24.29h.61v78.95h-25.51ZM1473.04,263.48v-66.6c0-6.07-1.52-10.56-4.55-13.46-3.04-2.9-7.32-4.35-12.86-4.35-4.86,0-9.31,1.15-13.36,3.44-4.05,2.3-7.26,5.54-9.62,9.72-2.36,4.19-3.54,9.04-3.54,14.58l-2.63-23.69c3.51-7.56,8.57-13.6,15.18-18.12,6.61-4.52,14.3-6.78,23.08-6.78,10.53,0,18.83,3,24.9,9.01,6.07,6.01,9.11,13.73,9.11,23.18v73.08h-25.71ZM1542.48,263.48v-66.6c0-6.07-1.49-10.56-4.45-13.46-2.97-2.9-7.22-4.35-12.75-4.35-5,0-9.51,1.15-13.56,3.44-4.05,2.3-7.22,5.54-9.51,9.72-2.3,4.19-3.44,9.04-3.44,14.58l-4.45-23.69c3.37-7.56,8.5-13.6,15.39-18.12,6.88-4.52,14.85-6.78,23.89-6.78,10.8,0,19.26,3.07,25.41,9.21,6.14,6.14,9.21,14.27,9.21,24.4v71.67h-25.71Z"/>
    <path class="st0" d="M1620.62,265.5c-10.39,0-18.66-2.6-24.8-7.79-6.14-5.19-9.21-12.18-9.21-20.95,0-9.45,3.44-16.94,10.33-22.47,6.88-5.53,16.6-9.24,29.15-11.13l32.19-4.86v16.2l-27.94,4.25c-6.07.95-10.63,2.63-13.67,5.06-3.04,2.43-4.55,5.8-4.55,10.12,0,3.92,1.42,6.92,4.25,9.01,2.83,2.09,6.75,3.14,11.74,3.14,7.29,0,13.36-1.82,18.22-5.47,4.86-3.64,7.29-8.1,7.29-13.36l2.83,15.59c-2.7,7.42-7.12,13.06-13.26,16.9-6.14,3.85-13.67,5.77-22.57,5.77ZM1656.45,263.48c-.68-2.7-1.18-5.67-1.52-8.91-.34-3.24-.51-7.15-.51-11.74h-.81v-48.99c0-5.4-1.52-9.48-4.55-12.25-3.04-2.76-7.66-4.15-13.87-4.15s-10.9,1.11-14.47,3.34c-3.58,2.23-5.77,5.43-6.58,9.62h-24.5c1.08-9.58,5.67-17.34,13.77-23.28,8.1-5.94,18.96-8.91,32.59-8.91s24.9,3.21,32.19,9.62c7.29,6.41,10.93,15.83,10.93,28.24v46.77c0,3.24.23,6.55.71,9.92.47,3.38,1.18,6.95,2.13,10.73h-25.51Z"/>
    <path class="st0" d="M1705.04,263.48v-103.25h24.9v24.29h.61v78.95h-25.51ZM1777.52,263.48v-65.19c0-6.34-1.62-11.13-4.86-14.37-3.24-3.24-7.96-4.86-14.17-4.86-5.4,0-10.22,1.21-14.47,3.64-4.25,2.43-7.56,5.8-9.92,10.12-2.36,4.32-3.54,9.31-3.54,14.98l-2.63-24.7c3.51-7.56,8.64-13.6,15.39-18.12,6.75-4.52,14.84-6.78,24.29-6.78,11.2,0,19.94,3.17,26.22,9.51,6.28,6.35,9.41,14.78,9.41,25.31v70.45h-25.71Z"/>
  </g>
  <g>
    <path class="st0" d="M222.28,90.17c4.59,1.35,6.23,18.49,7.43,22.95l4.8,43.88c.4-11.3,1.56-22.59,3.25-33.76.97-6.42,4.08-27.67,8.47-31.26,1.69-1.38,5.08-2.22,8.78-2.35v-.03c.08,0,.16.02.24.02,2.11-.06,4.32.12,6.37.58,11.64,1.21,23.05,4.23,33.4,9.46,24.27,12.24,46.92,46.22,38.74,74.07,4.62,8.28,12.59,16.56,16.84,24.83.61,1.19.65,2.33,1.33,3.37v4.03c-1.36,4.7-4.8,7.53-9.43,8.77.93,6.63,6.39,12.18-2.65,15.63,5.82,4.19,1.4,8.64.89,13.89-.7,7.2,3.53,13.21-1.61,19.89-7.08,9.2-21.38,6.19-31.18,7.77-11.38,1.84-19.23,8.75-22.25,19.84-.16.58-.28,1.23-.4,1.88h-30.3v-.08c-2.6-.04-4.96-.16-5.92-.38-1.88-.42-4.57-3.01-5.39-4.73-2.23-4.66-4.21-17.27-5.16-22.88-2.2-12.93-3.41-26.12-4.03-39.22l-4.02,39.21c-.61,4.23-4,25.41-6.63,27.07-11.16,3.68-11.11-3.25-13.12-11.74-10.21-43.13-9.72-130.28-.91-173.89,1.46-7.24,2.27-19.82,12.45-16.83Z"/>
    <path class="st0" d="M186.2,99.72c.74-1.58,1.97-4.78,4.18-4.19,5.13,1.37,8.48,28.5,9.08,33.82,2.84,25.32,2.88,50.96,2.31,76.31-.48,21.2-.17,57.23-7.55,76.59-.94,2.46-1.59,5.43-4.51,6.22-3.72-.29-6.52-15.13-7.14-18.36-5.93-30.85-6.03-72.54-4.96-104.19.52-15.41,2.46-53.2,8.59-66.2Z"/>
    <path class="st0" d="M163.93,107.17c1.95.34,3.55,7.38,4,9.29,3.71,15.81,3.66,34.78,4.27,51.05,1.11,29.77,1.81,64.75-3.25,94.15-1.14,6.6-4.41,24.51-9,8.47-4.57-15.96-4.27-36.9-4.87-53.56-1.09-30.11-1.93-65.16,3.21-94.89.42-2.45,2.36-15.07,5.64-14.5Z"/>
    <path class="st0" d="M143.93,138.91c4.19,25.42,5,85.49-.78,110.2-.23.97-1.81,7.46-3.67,6.06-4.58-14.14-4.11-29.27-4.69-44.01-.9-22.79-1.29-46.49,1.67-69.25,1.36-10.5,4.46-21.3,7.48-3Z"/>
    <path class="st0" d="M118.54,166.06c.31-1.65.42-4.42,2.23-5.16,2.88,14.94,3.28,32.66,2.38,47.94-.11,1.88-1.28,13.59-2.76,13.59-2.1-2.74-2.4-7.77-2.72-11.29-1.16-12.72-1.49-32.68.87-45.08Z"/>
  </g>
</svg>